<?xml version="1.0" standalone="no"?>
<!DOCTYPE svg PUBLIC "-//W3C//DTD SVG 20010904//EN"
 "http://www.w3.org/TR/2001/REC-SVG-20010904/DTD/svg10.dtd">
<svg version="1.0" xmlns="http://www.w3.org/2000/svg"
 width="2000.000000pt" height="2000.000000pt" viewBox="0 0 2000.000000 2000.000000"
 preserveAspectRatio="xMidYMid meet">
<metadata>
Created by potrace 1.11, written by Peter Selinger 2001-2013
</metadata>
<g transform="translate(0.000000,2000.000000) scale(0.100000,-0.100000)"
fill="#000000" stroke="none">
<path d="M9895 19981 c-44 -14 -121 -52 -165 -81 -12 -8 -216 -126 -570 -329
-176 -101 -337 -194 -350 -202 -31 -18 -247 -143 -295 -169 -27 -15 -88 -50
-135 -78 -113 -66 -453 -262 -510 -294 -25 -14 -175 -101 -335 -193 -606 -350
-681 -393 -718 -414 -21 -12 -109 -62 -195 -112 -86 -50 -218 -126 -292 -169
-74 -43 -222 -128 -327 -189 -106 -61 -197 -111 -202 -111 -5 0 -11 -3 -13 -8
-1 -4 -46 -32 -98 -61 -125 -71 -116 -66 -405 -233 -293 -169 -1094 -632
-1145 -661 -19 -10 -109 -62 -200 -115 -91 -52 -178 -103 -195 -112 -16 -9
-75 -43 -130 -75 -97 -56 -129 -75 -197 -114 -18 -10 -152 -87 -298 -171 -146
-84 -334 -193 -418 -241 -85 -49 -157 -89 -161 -89 -4 0 -12 -5 -19 -12 -6 -6
-40 -28 -76 -47 -49 -28 -318 -183 -444 -256 -9 -6 -69 -39 -132 -75 -127 -72
-198 -135 -229 -202 -70 -154 -41 -314 76 -425 19 -17 224 -141 456 -274 232
-134 458 -264 502 -289 95 -56 274 -159 328 -189 21 -12 95 -54 165 -95 70
-40 147 -84 172 -98 25 -14 164 -94 310 -178 146 -84 279 -161 295 -170 124
-71 550 -315 623 -358 32 -18 65 -36 75 -39 9 -3 17 -9 17 -14 0 -5 4 -9 9 -9
4 0 96 -50 202 -111 107 -62 210 -121 229 -132 19 -10 123 -70 230 -132 107
-62 215 -123 240 -137 25 -14 123 -71 219 -127 96 -55 175 -101 177 -101 1 0
48 -27 104 -60 56 -33 103 -60 105 -60 3 0 45 -25 95 -55 50 -30 93 -55 95
-55 2 0 28 -14 57 -31 49 -29 235 -136 816 -471 123 -70 228 -128 233 -128 5
0 9 -4 9 -10 0 -5 5 -10 11 -10 7 0 35 -14 63 -32 28 -17 71 -42 96 -56 25
-14 135 -77 244 -140 109 -62 215 -123 235 -134 20 -12 50 -29 66 -39 17 -11
37 -22 45 -26 8 -3 33 -18 54 -31 22 -13 62 -37 90 -52 28 -15 118 -66 200
-113 82 -48 152 -87 154 -87 3 0 13 -7 22 -15 14 -13 25 -5 100 71 71 72 257
224 273 224 3 0 35 18 71 40 121 73 318 151 446 175 19 4 43 9 53 11 16 5 17
66 17 1103 l0 1098 -58 12 c-390 77 -780 345 -1006 693 -383 589 -337 1359
113 1898 430 513 1130 704 1771 484 215 -74 412 -198 590 -369 226 -217 396
-530 451 -830 6 -33 13 -71 15 -84 14 -72 19 -300 9 -381 -18 -141 -19 -146
-50 -266 -150 -565 -624 -1017 -1200 -1143 l-79 -17 -1 -1093 c0 -601 3 -1095
8 -1098 4 -2 20 -7 35 -9 145 -26 329 -96 510 -195 77 -42 245 -175 324 -256
l77 -80 103 60 c57 32 236 136 398 230 162 93 311 179 330 189 19 11 53 30 75
43 22 13 51 30 65 38 19 10 699 403 907 523 88 51 542 312 582 335 25 15 87
50 136 79 50 29 108 63 130 75 22 13 81 46 130 75 50 29 104 61 122 71 17 10
137 78 265 152 128 74 256 147 283 162 28 15 62 36 77 46 14 11 31 19 36 19 6
0 12 3 14 8 2 4 21 16 43 28 36 18 267 151 305 175 67 41 313 179 321 179 5 0
9 3 9 8 0 4 10 12 23 18 12 6 114 64 227 129 113 65 230 131 260 148 30 16 62
35 70 41 8 6 24 16 35 22 43 23 892 512 1180 679 55 32 132 76 170 98 39 22
140 80 225 130 85 50 176 102 201 116 331 187 366 213 412 303 63 126 54 259
-24 375 -31 44 -84 92 -127 114 -15 7 -49 27 -77 44 -27 17 -63 38 -80 47 -16
8 -97 54 -179 101 -82 48 -150 87 -151 87 -3 0 -264 151 -295 170 -8 5 -69 40
-135 77 -151 85 -97 54 -511 293 -196 113 -375 216 -398 229 -22 13 -99 57
-171 99 -71 41 -148 85 -170 97 -44 24 -293 167 -540 310 -88 51 -177 102
-197 114 -21 11 -55 31 -75 42 -21 12 -110 63 -198 114 -88 51 -180 104 -205
117 -25 14 -162 93 -305 175 -448 258 -938 540 -977 561 -20 12 -55 32 -77 46
-22 15 -43 26 -46 26 -4 0 -119 65 -175 99 -24 15 -509 293 -569 327 -31 17
-202 116 -381 219 -179 103 -341 196 -360 207 -19 11 -51 28 -70 40 -19 11
-111 64 -205 118 -93 54 -186 107 -205 119 -19 11 -42 24 -50 28 -8 4 -48 26
-88 50 -40 24 -75 43 -78 43 -3 0 -28 15 -57 33 -29 18 -65 40 -82 49 -16 8
-84 46 -150 85 -66 38 -140 81 -165 95 -25 14 -148 84 -273 157 -125 72 -232
131 -237 131 -6 0 -10 5 -10 10 0 6 -4 10 -10 10 -5 0 -32 13 -59 29 -99 59
-210 74 -306 42z"/>
<path d="M1463 14166 c-131 -41 -238 -169 -250 -301 -3 -30 -6 -2091 -7 -4578
l-1 -4522 33 -67 c20 -42 50 -82 79 -108 25 -22 143 -96 262 -164 119 -68 331
-190 471 -271 140 -81 275 -159 300 -173 25 -14 109 -63 188 -108 79 -46 144
-84 146 -84 2 0 56 -31 120 -70 65 -38 119 -70 120 -70 3 0 324 -184 366 -209
14 -9 298 -173 365 -211 17 -10 165 -95 330 -190 165 -95 314 -181 330 -190
17 -10 81 -47 144 -84 62 -36 116 -66 119 -66 3 0 13 -6 21 -14 9 -7 48 -30
86 -51 39 -21 87 -49 107 -62 21 -12 40 -23 43 -23 3 0 22 -11 43 -24 20 -13
129 -76 242 -141 113 -64 234 -134 270 -155 270 -157 362 -210 366 -210 2 0
33 -18 68 -40 35 -22 67 -40 71 -40 5 0 16 -6 24 -14 9 -7 41 -27 71 -43 30
-17 111 -63 180 -103 69 -40 141 -81 160 -92 19 -11 330 -190 690 -398 360
-208 671 -387 690 -397 19 -11 78 -45 130 -75 202 -117 427 -247 460 -265 34
-19 140 -80 644 -373 276 -159 297 -169 381 -176 157 -13 299 75 364 225 l25
56 3 2000 c7 5691 7 5766 -8 5776 -8 5 -26 9 -40 9 -24 0 -192 49 -244 70
-237 99 -415 218 -585 393 l-76 78 -184 -107 c-102 -58 -203 -116 -225 -129
-44 -24 -627 -359 -1105 -633 -168 -96 -330 -189 -362 -206 -31 -17 -57 -34
-58 -39 -1 -6 14 -108 26 -172 22 -112 21 -323 -1 -469 -58 -388 -277 -772
-570 -1002 -27 -21 -52 -41 -55 -44 -17 -18 -168 -110 -240 -146 -115 -57
-147 -71 -237 -99 -166 -53 -284 -70 -488 -70 -191 0 -249 7 -414 51 -350 92
-660 301 -872 589 -33 44 -63 85 -68 91 -5 6 -34 58 -64 115 -83 156 -129 290
-172 502 -15 69 -22 344 -11 407 3 14 7 48 11 75 3 28 15 88 26 135 91 387
318 719 651 950 173 120 431 229 608 256 19 3 46 7 60 10 90 16 273 22 390 12
302 -27 609 -149 855 -340 56 -44 232 -223 275 -280 23 -32 46 -58 51 -58 5 0
23 8 41 19 18 10 110 62 203 116 94 54 188 107 210 119 22 12 42 23 45 26 4 5
304 177 375 216 11 6 67 38 125 71 58 34 125 72 150 87 25 14 98 56 163 93 65
38 126 73 135 78 10 6 115 66 235 135 165 94 216 128 212 140 -16 40 -65 245
-70 292 -3 29 -8 67 -11 83 -12 66 -4 341 11 395 2 8 7 31 10 50 9 54 32 140
61 225 l26 78 -23 18 c-13 10 -27 19 -30 19 -4 0 -63 33 -130 73 -68 40 -149
87 -179 103 -58 32 -395 227 -515 297 -38 23 -79 47 -90 52 -27 15 -99 56
-235 135 -63 37 -135 78 -160 92 -25 14 -144 83 -265 153 -121 70 -323 187
-450 260 -126 73 -246 142 -265 154 -19 11 -42 24 -50 28 -8 4 -123 70 -255
146 -132 77 -260 151 -285 165 -25 14 -173 99 -330 190 -157 91 -299 173 -317
183 -17 10 -137 78 -265 152 -128 74 -249 144 -268 154 -19 11 -134 78 -255
148 -121 70 -245 141 -275 158 -30 16 -71 41 -90 54 -19 12 -38 23 -43 23 -4
0 -36 17 -70 39 -57 35 -147 88 -237 138 -19 11 -138 80 -265 153 -277 160
-285 164 -332 191 -21 12 -51 30 -68 40 -16 10 -40 23 -52 28 -12 6 -41 22
-64 37 -23 14 -85 51 -138 80 -53 30 -103 59 -111 64 -8 5 -37 22 -65 38 -27
15 -174 100 -325 187 -151 87 -296 167 -323 177 -56 21 -162 23 -224 4z"/>
<path d="M18324 14166 c-46 -15 -61 -23 -384 -209 -124 -72 -238 -138 -255
-147 -16 -10 -54 -31 -83 -49 -29 -17 -55 -31 -58 -31 -3 0 -18 -8 -32 -19
-15 -10 -48 -30 -73 -43 -39 -22 -564 -325 -669 -386 -19 -11 -51 -29 -70 -40
-19 -11 -181 -104 -359 -207 -178 -103 -345 -199 -370 -214 -124 -70 -278
-159 -319 -184 -26 -15 -56 -32 -67 -37 -11 -6 -27 -14 -35 -20 -27 -17 -202
-120 -206 -120 -1 0 -53 -29 -114 -65 -61 -36 -130 -76 -153 -89 -23 -13 -69
-39 -102 -58 -33 -19 -76 -44 -95 -54 -19 -10 -37 -21 -40 -24 -3 -3 -16 -11
-30 -18 -14 -7 -34 -18 -45 -25 -11 -7 -94 -55 -185 -107 -91 -52 -173 -99
-182 -105 -10 -5 -86 -50 -170 -98 -84 -49 -160 -92 -168 -97 -8 -6 -141 -82
-295 -170 -154 -88 -287 -164 -295 -170 -14 -9 -140 -81 -220 -126 -20 -11
-64 -37 -96 -56 -33 -20 -77 -46 -99 -58 -38 -21 -171 -98 -535 -308 -427
-246 -548 -316 -590 -340 -25 -14 -78 -45 -118 -69 -41 -24 -76 -43 -78 -43
-3 0 -30 -16 -60 -35 -30 -19 -56 -35 -59 -35 -2 0 -31 -16 -64 -35 l-60 -35
20 -47 c26 -61 77 -255 84 -318 3 -27 7 -61 10 -74 7 -37 8 -258 1 -326 -9
-84 -34 -204 -62 -298 -13 -44 -23 -81 -21 -83 2 -2 284 -165 367 -212 25 -14
162 -93 305 -175 143 -82 351 -202 463 -266 111 -64 217 -124 235 -135 223
-128 451 -258 487 -278 l46 -25 29 41 c101 141 284 310 444 411 158 99 424
197 591 219 25 3 66 8 92 12 66 8 262 8 328 0 101 -12 116 -15 211 -37 305
-71 571 -225 799 -464 275 -286 436 -696 433 -1101 -1 -86 -8 -184 -17 -229
-2 -11 -7 -40 -12 -65 -17 -95 -35 -159 -70 -252 -58 -154 -125 -275 -223
-408 -61 -83 -213 -240 -276 -285 -22 -16 -42 -32 -45 -36 -14 -19 -177 -117
-265 -159 -130 -62 -260 -105 -415 -134 -108 -21 -149 -24 -300 -21 -165 3
-194 5 -280 20 -117 20 -287 78 -420 143 -405 197 -721 581 -835 1015 -13 51
-27 108 -30 127 -3 19 -8 42 -10 50 -7 25 -17 160 -17 235 0 103 12 225 32
323 10 48 18 88 17 88 -2 2 -185 108 -452 261 -293 169 -280 161 -406 232 -63
35 -130 74 -149 86 -19 12 -78 46 -130 75 -52 29 -131 75 -176 102 -45 26 -84
48 -87 48 -4 0 -31 16 -61 35 -30 19 -57 35 -60 35 -3 0 -40 21 -83 46 -102
59 -91 53 -222 128 l-114 65 -92 -92 c-155 -156 -311 -264 -501 -347 -96 -42
-262 -95 -336 -106 -38 -6 -38 -7 -38 -53 -1 -95 1 -2582 4 -5111 l3 -2615 30
-65 c68 -145 193 -222 350 -216 86 3 100 10 423 196 146 84 281 162 300 172
19 11 76 44 125 73 50 29 225 130 390 225 259 150 389 224 521 300 130 75 654
377 756 436 70 41 132 74 137 74 5 0 11 4 13 8 3 7 38 28 168 100 25 14 57 33
71 43 15 10 37 23 50 29 13 6 38 19 54 30 17 10 41 25 55 33 21 11 220 125
338 194 17 10 134 77 259 149 126 72 300 173 388 224 88 51 180 104 205 118
25 14 77 44 115 67 39 22 77 44 85 48 8 4 24 13 35 20 24 15 166 97 215 125
19 10 123 70 230 132 107 62 216 124 241 139 156 90 336 194 349 202 64 39
242 139 247 139 4 0 14 6 22 14 9 7 36 25 61 38 39 22 268 153 310 178 52 31
201 116 235 135 45 24 456 261 580 334 44 26 87 50 95 54 8 4 35 20 60 35 25
15 111 64 190 110 80 46 152 87 160 92 8 6 85 50 170 99 85 49 171 98 190 109
19 12 61 35 93 53 71 40 131 103 165 177 l27 57 0 4525 c0 2489 -4 4549 -8
4579 -17 121 -94 224 -204 277 -69 33 -191 43 -259 20z"/>
</g>
</svg>
